<svg width="32" height="32" viewBox="0 0 32 32" fill="none" xmlns="http://www.w3.org/2000/svg">
<g clip-path="url(#clip0_10_2)">
<circle cx="16" cy="16" r="16" fill="#00FFF0"/>
<path d="M8.71893 4.27273H9.98029L12.9462 11.517H13.0485L16.0144 4.27273H17.2757V13H16.2871V6.36932H16.2019L13.4746 13H12.5201L9.79279 6.36932H9.70756V13H8.71893V4.27273ZM13.8635 28V19.2727H19.1305V20.2102H14.9203V23.1591H18.8578V24.0966H14.9203V27.0625H19.1987V28H13.8635ZM22.2285 19.2727L22.1433 25.5455H21.1547L21.0694 19.2727H22.2285ZM21.649 28.0682C21.4387 28.0682 21.2583 27.9929 21.1078 27.8423C20.9572 27.6918 20.8819 27.5114 20.8819 27.3011C20.8819 27.0909 20.9572 26.9105 21.1078 26.7599C21.2583 26.6094 21.4387 26.5341 21.649 26.5341C21.8592 26.5341 22.0396 26.6094 22.1902 26.7599C22.3407 26.9105 22.416 27.0909 22.416 27.3011C22.416 27.4403 22.3805 27.5682 22.3095 27.6847C22.2413 27.8011 22.149 27.8949 22.0325 27.9659C21.9189 28.0341 21.791 28.0682 21.649 28.0682Z" fill="#FFAFE9"/>
</g>
<defs>
<clipPath id="clip0_10_2">
<rect width="32" height="32" fill="white"/>
</clipPath>
</defs>
</svg>
